<?xml version="1.0" standalone="no"?>
<!DOCTYPE svg PUBLIC "-//W3C//DTD SVG 20010904//EN"
 "http://www.w3.org/TR/2001/REC-SVG-20010904/DTD/svg10.dtd">
<svg version="1.0" xmlns="http://www.w3.org/2000/svg"
 width="128.000000pt" height="128.000000pt" viewBox="0 0 128.000000 128.000000"
 preserveAspectRatio="xMidYMid meet">

<g transform="translate(0.000000,128.000000) scale(0.100000,-0.100000)"
fill="#000000" stroke="none">
<path d="M63 1260 c-63 -38 -63 -37 -63 -485 0 -356 2 -411 16 -441 30 -63 54
-69 286 -72 l208 -3 0 -55 c0 -48 -2 -54 -21 -54 -62 0 -124 -62 -117 -118 l3
-27 265 0 265 0 3 27 c7 56 -55 118 -117 118 -19 0 -21 6 -21 54 l0 55 208 3
c232 3 256 9 286 72 14 30 16 85 16 441 0 448 0 447 -63 485 -31 19 -54 20
-577 20 -523 0 -546 -1 -577 -20z m1142 -55 l25 -24 0 -336 0 -335 -55 0 -55
0 0 284 c0 156 -3 291 -6 300 -9 24 -239 24 -248 0 -3 -9 -6 -144 -6 -300 l0
-284 -60 0 -60 0 0 45 c0 25 -5 88 -10 139 -11 93 -11 94 15 132 36 52 30 89
-29 192 -51 87 -66 105 -83 94 -5 -4 -33 -48 -62 -98 -57 -101 -63 -137 -30
-190 19 -31 19 -40 10 -128 -6 -52 -11 -116 -11 -141 l0 -45 -60 0 -60 0 0
189 0 188 -55 112 c-43 88 -59 111 -75 111 -16 0 -32 -23 -75 -111 l-55 -112
0 -188 0 -189 -55 0 -55 0 0 335 0 336 25 24 24 25 541 0 541 0 24 -25z m-145
-170 c0 -18 -5 -25 -20 -25 -13 0 -20 -7 -20 -19 0 -11 9 -23 20 -26 15 -5 20
-15 20 -40 0 -24 -5 -34 -20 -38 -11 -3 -20 -13 -20 -22 0 -9 9 -19 20 -22 16
-4 20 -14 20 -44 0 -32 -3 -39 -20 -39 -13 0 -20 -7 -20 -19 0 -11 9 -23 20
-26 16 -5 20 -15 20 -56 0 -42 -3 -49 -20 -49 -13 0 -20 -7 -20 -19 0 -11 9
-23 20 -26 13 -4 20 -15 20 -31 0 -23 -3 -24 -70 -24 l-70 0 0 275 0 275 70 0
c68 0 70 -1 70 -25z m-366 -80 c31 -60 32 -74 5 -109 -26 -33 -73 -35 -106 -4
-32 30 -29 59 13 134 41 73 37 74 88 -21z m-376 20 c12 -25 22 -50 22 -55 0
-6 -22 -10 -50 -10 -27 0 -50 4 -50 10 0 14 43 100 50 100 3 0 16 -20 28 -45z
m-58 -290 c0 -168 -1 -175 -20 -175 -19 0 -20 7 -20 175 0 168 1 175 20 175
19 0 20 -7 20 -175z m100 0 c0 -168 -1 -175 -20 -175 -19 0 -20 7 -20 175 0
168 1 175 20 175 19 0 20 -7 20 -175z m314 58 c3 -16 6 -50 8 -78 l2 -50 -44
0 -44 0 2 50 c5 91 10 105 42 105 23 0 29 -5 34 -27z m16 -208 c0 -23 -3 -25
-50 -25 -47 0 -50 2 -50 25 0 23 3 25 50 25 47 0 50 -2 50 -25z m540 -122 c-1
-57 -16 -80 -61 -93 -45 -13 -1013 -13 -1058 0 -45 13 -60 36 -61 93 l0 47
590 0 590 0 0 -47z m-520 -208 l0 -55 -70 0 -70 0 0 55 0 55 70 0 70 0 0 -55z
m130 -127 l25 -23 -113 -3 c-61 -1 -163 -1 -224 0 l-113 3 25 23 c23 21 31 22
200 22 169 0 177 -1 200 -22z"/>
<path d="M520 391 c0 -25 19 -31 95 -31 76 0 95 6 95 31 0 17 -8 19 -95 19
-87 0 -95 -2 -95 -19z"/>
<path d="M770 390 c0 -13 7 -20 20 -20 13 0 20 7 20 20 0 13 -7 20 -20 20 -13
0 -20 -7 -20 -20z"/>
</g>
</svg>
