<?xml version="1.0" standalone="no"?>
<!DOCTYPE svg PUBLIC "-//W3C//DTD SVG 20010904//EN"
 "http://www.w3.org/TR/2001/REC-SVG-20010904/DTD/svg10.dtd">
<svg version="1.0" xmlns="http://www.w3.org/2000/svg"
 width="128.000000pt" height="128.000000pt" viewBox="0 0 128.000000 128.000000"
 preserveAspectRatio="xMidYMid meet">

<g transform="translate(0.000000,128.000000) scale(0.100000,-0.100000)"
fill="#000000" stroke="none">
<path d="M744 1251 c-7 -35 -38 -66 -77 -75 -35 -8 -33 -39 3 -44 34 -5 67
-37 74 -73 8 -40 37 -35 48 7 9 37 26 52 65 63 40 11 43 40 4 47 -36 7 -68 40
-73 74 -5 38 -37 39 -44 1z m39 -113 c-15 -17 -17 -17 -35 -1 -17 15 -17 17
-1 35 15 17 17 17 35 1 17 -15 17 -17 1 -35z"/>
<path d="M1127 1253 c-4 -3 -7 -16 -7 -28 0 -27 -36 -61 -73 -70 -36 -9 -32
-36 6 -46 39 -11 56 -26 65 -63 11 -42 40 -47 48 -7 7 36 31 59 70 70 45 12
42 36 -6 50 -35 10 -44 19 -60 57 -19 42 -29 52 -43 37z m35 -136 c-14 -16
-16 -16 -34 0 -17 15 -17 18 -2 34 15 16 17 16 33 1 16 -15 16 -19 3 -35z"/>
<path d="M934 1113 c-14 -46 -32 -69 -64 -79 -49 -16 -50 -38 -2 -52 37 -11
53 -30 67 -79 10 -36 32 -27 47 20 11 36 19 44 56 57 50 17 53 40 6 52 -37 9
-61 34 -66 68 -4 30 -36 40 -44 13z m39 -125 c-15 -17 -17 -17 -35 -1 -17 15
-17 17 -1 35 15 17 17 17 35 1 17 -15 17 -17 1 -35z"/>
<path d="M17 1063 c-4 -3 -7 -55 -7 -115 0 -101 1 -108 20 -108 19 0 20 7 20
95 l0 95 95 0 c88 0 95 1 95 20 0 19 -7 20 -108 20 -60 0 -112 -3 -115 -7z"/>
<path d="M483 960 c-27 -11 -38 -31 -53 -102 l-13 -58 -103 0 c-112 0 -141 -7
-173 -41 -20 -22 -21 -32 -21 -297 l0 -274 29 -29 29 -29 462 0 462 0 29 29
29 29 0 274 0 274 -31 30 c-29 28 -33 29 -148 32 l-119 4 -12 60 c-22 102 -24
103 -197 105 -81 1 -158 -2 -170 -7z m330 -122 l19 -78 108 0 c107 0 157 -10
172 -33 4 -7 8 -126 8 -266 0 -223 -2 -257 -17 -273 -15 -17 -43 -18 -461 -18
-400 0 -447 2 -464 17 -17 15 -18 37 -18 272 0 141 4 261 8 268 15 23 65 33
172 33 l108 0 17 73 c10 39 20 75 22 80 3 4 73 6 156 5 l151 -3 19 -77z"/>
<path d="M200 640 l0 -71 73 3 72 3 0 65 0 65 -72 3 -73 3 0 -71z m100 0 c0
-27 -3 -30 -30 -30 -27 0 -30 3 -30 30 0 27 3 30 30 30 27 0 30 -3 30 -30z"/>
<path d="M551 696 c-90 -32 -161 -135 -161 -234 0 -264 356 -346 474 -110 65
131 -6 306 -143 346 -49 15 -126 14 -170 -2z m167 -42 c141 -58 175 -231 68
-339 -85 -84 -208 -84 -292 1 -62 62 -80 146 -48 222 44 107 168 160 272 116z"/>
<path d="M575 616 c-81 -35 -122 -133 -90 -214 57 -142 253 -142 310 0 53 134
-88 272 -220 214z m102 -37 c94 -35 117 -150 42 -213 -24 -20 -42 -26 -79 -26
-137 0 -172 180 -45 236 37 16 46 17 82 3z"/>
<path d="M12 118 l3 -113 112 -3 c108 -3 113 -2 113 18 0 19 -6 20 -95 20
l-95 0 0 95 c0 89 -1 95 -20 95 -20 0 -21 -5 -18 -112z"/>
<path d="M1230 135 l0 -95 -95 0 c-89 0 -95 -1 -95 -20 0 -20 5 -21 113 -18
l112 3 3 113 c3 107 2 112 -18 112 -19 0 -20 -6 -20 -95z"/>
</g>
</svg>
