<?xml version="1.0" standalone="no"?>
<!DOCTYPE svg PUBLIC "-//W3C//DTD SVG 20010904//EN"
 "http://www.w3.org/TR/2001/REC-SVG-20010904/DTD/svg10.dtd">
<svg version="1.0" xmlns="http://www.w3.org/2000/svg"
 width="128.000000pt" height="128.000000pt" viewBox="0 0 128.000000 128.000000"
 preserveAspectRatio="xMidYMid meet">

<g transform="translate(0.000000,128.000000) scale(0.100000,-0.100000)"
fill="#000000" stroke="none">
<path d="M217 1273 c-4 -3 -7 -143 -7 -309 l0 -303 -91 -151 c-50 -83 -89
-157 -86 -163 3 -7 131 -88 285 -181 l279 -167 117 30 c65 16 119 31 121 33 1
1 31 49 65 105 60 101 62 103 99 103 52 0 61 13 61 95 l0 70 99 165 c69 114
96 169 89 177 -5 6 -49 35 -99 64 l-89 53 0 177 c0 98 -3 184 -6 193 -5 12
-20 16 -58 16 -57 0 -67 -5 -59 -26 3 -9 20 -14 44 -14 l39 0 0 -161 c0 -88
-3 -158 -7 -156 -5 2 -42 24 -83 48 l-75 44 48 3 c39 3 48 6 45 20 -3 14 -18
18 -86 20 -61 2 -91 8 -115 22 l-32 20 118 0 c110 0 117 1 117 20 0 19 -7 20
-151 20 l-152 0 -50 31 c-41 25 -54 29 -71 20 -12 -6 -64 -12 -116 -13 l-95
-3 0 -115 0 -115 28 -3 c15 -2 27 -6 27 -8 0 -8 -112 -194 -116 -194 -2 0 -4
112 -4 250 l0 250 312 2 c289 3 313 4 316 21 3 16 -18 17 -326 17 -181 0 -332
-3 -335 -7z m667 -319 c180 -107 324 -198 322 -202 -2 -4 -90 -151 -196 -327
-106 -176 -193 -321 -194 -322 -1 -1 -31 15 -66 37 -74 44 -75 44 -121 -37
-21 -37 -36 -53 -46 -49 -37 14 -503 300 -503 308 0 14 464 787 472 788 4 0
153 -88 332 -196z m-394 179 c0 -5 -20 -39 -43 -78 -34 -55 -49 -71 -70 -73
l-27 -3 0 80 0 81 70 0 c39 0 70 -3 70 -7z m530 -798 c0 -16 -6 -25 -15 -25
-18 0 -19 4 -3 30 16 26 18 25 18 -5z m-255 -253 c-5 -6 -117 -33 -120 -30 -1
2 8 20 21 41 l24 37 40 -22 c21 -13 37 -24 35 -26z"/>
<path d="M677 963 c-14 -14 -5 -22 73 -68 72 -42 100 -49 100 -25 0 9 -145
100 -159 100 -4 0 -11 -3 -14 -7z"/>
<path d="M492 923 c3 -18 156 -115 172 -110 27 9 9 30 -67 76 -91 54 -110 61
-105 34z"/>
<path d="M440 837 c0 -17 506 -327 534 -327 48 0 -9 42 -239 180 -140 83 -264
154 -275 157 -14 4 -20 0 -20 -10z"/>
<path d="M884 835 c-4 -8 -5 -17 -3 -19 19 -16 198 -116 206 -116 7 0 15 4 18
10 6 10 -52 50 -157 110 -50 28 -59 30 -64 15z"/>
<path d="M712 788 c5 -14 296 -196 316 -197 6 -1 12 7 12 17 0 11 -48 45 -148
105 -140 83 -189 103 -180 75z"/>
<path d="M506 681 c-3 -5 0 -13 7 -19 29 -24 401 -242 413 -242 8 0 14 7 14
15 0 15 -392 255 -416 255 -7 0 -15 -4 -18 -9z"/>
<path d="M334 669 c-9 -15 -10 -13 164 -118 153 -91 182 -103 182 -77 0 12
-310 206 -330 206 -5 0 -12 -5 -16 -11z"/>
<path d="M280 577 c0 -15 119 -87 143 -87 32 0 16 21 -45 60 -64 41 -98 50
-98 27z"/>
<path d="M233 495 c-3 -9 -4 -17 -2 -19 24 -19 530 -316 539 -316 6 0 10 8 8
17 -2 10 -112 82 -266 175 -145 87 -265 158 -268 158 -3 0 -7 -7 -11 -15z"/>
<path d="M477 474 c-4 -4 -7 -11 -7 -15 0 -16 339 -211 355 -205 9 3 14 10 10
16 -6 9 -310 195 -337 205 -8 3 -17 2 -21 -1z"/>
<path d="M715 439 c-9 -13 -15 -8 78 -64 54 -33 82 -44 89 -37 15 15 5 25 -71
71 -74 43 -86 47 -96 30z"/>
<path d="M182 403 c5 -25 216 -149 230 -135 16 16 5 26 -106 91 -111 65 -129
71 -124 44z"/>
<path d="M450 240 c0 -14 120 -90 143 -90 36 0 14 30 -46 65 -64 35 -97 44
-97 25z"/>
</g>
</svg>
