<?xml version="1.0" standalone="no"?>
<!DOCTYPE svg PUBLIC "-//W3C//DTD SVG 20010904//EN"
 "http://www.w3.org/TR/2001/REC-SVG-20010904/DTD/svg10.dtd">
<svg version="1.0" xmlns="http://www.w3.org/2000/svg"
 width="128.000000pt" height="128.000000pt" viewBox="0 0 128.000000 128.000000"
 preserveAspectRatio="xMidYMid meet">

<g transform="translate(0.000000,128.000000) scale(0.100000,-0.100000)"
fill="#000000" stroke="none">
<path d="M13 1163 c-10 -4 -13 -118 -13 -523 0 -463 2 -519 16 -524 9 -3 291
-6 628 -6 463 0 615 3 624 12 17 17 17 1019 0 1036 -9 9 -161 12 -628 11 -338
0 -621 -3 -627 -6z m1217 -128 l0 -75 -590 0 -590 0 0 75 0 75 590 0 590 0 0
-75z m0 -500 l0 -365 -590 0 -590 0 0 365 0 365 590 0 590 0 0 -365z"/>
<path d="M176 1051 c-11 -17 6 -41 29 -41 23 0 40 24 29 41 -3 5 -16 9 -29 9
-13 0 -26 -4 -29 -9z"/>
<path d="M284 1045 c-8 -19 3 -35 25 -35 23 0 41 19 34 36 -7 18 -52 18 -59
-1z"/>
<path d="M393 1044 c-3 -8 -1 -20 5 -26 16 -16 47 -5 50 20 3 18 -1 22 -23 22
-14 0 -28 -7 -32 -16z"/>
<path d="M177 763 c-10 -9 -8 -225 1 -241 7 -9 39 -12 128 -10 l119 3 3 128 3
127 -124 0 c-68 0 -127 -3 -130 -7z m203 -123 l0 -81 -77 3 -78 3 -3 78 -3 77
81 0 80 0 0 -80z"/>
<path d="M514 757 c-2 -7 -3 -65 -2 -128 l3 -114 125 0 125 0 0 125 0 125
-123 3 c-95 2 -124 0 -128 -11z m206 -117 l0 -80 -80 0 -80 0 0 80 0 80 80 0
80 0 0 -80z"/>
<path d="M847 763 c-10 -9 -8 -225 1 -241 7 -9 39 -12 128 -10 l119 3 3 128 3
127 -124 0 c-68 0 -127 -3 -130 -7z m203 -123 l0 -81 -77 3 -78 3 -3 78 -3 77
81 0 80 0 0 -80z"/>
<path d="M175 430 c-4 -6 -1 -18 6 -26 10 -12 35 -14 128 -12 112 3 116 4 119
26 3 22 2 22 -122 22 -76 0 -127 -4 -131 -10z"/>
<path d="M513 425 c-11 -30 12 -36 133 -33 111 3 119 4 119 23 0 19 -8 20
-123 23 -105 2 -123 0 -129 -13z"/>
<path d="M852 418 c3 -22 7 -23 119 -26 93 -2 118 0 128 12 25 29 1 36 -125
36 -124 0 -125 0 -122 -22z"/>
<path d="M179 334 c-25 -31 13 -44 125 -44 108 0 130 7 124 36 -3 17 -15 19
-119 22 -98 2 -118 0 -130 -14z"/>
<path d="M520 340 c-12 -7 -12 -13 -4 -27 10 -16 27 -18 124 -18 97 0 114 2
124 18 8 14 8 20 -4 27 -20 13 -220 13 -240 0z"/>
<path d="M857 343 c-13 -12 -7 -41 9 -47 9 -3 59 -6 113 -6 108 0 147 14 122
44 -11 13 -35 16 -126 16 -61 0 -115 -3 -118 -7z"/>
</g>
</svg>
