<?xml version="1.0" standalone="no"?>
<!DOCTYPE svg PUBLIC "-//W3C//DTD SVG 20010904//EN"
 "http://www.w3.org/TR/2001/REC-SVG-20010904/DTD/svg10.dtd">
<svg version="1.0" xmlns="http://www.w3.org/2000/svg"
 width="128.000000pt" height="128.000000pt" viewBox="0 0 128.000000 128.000000"
 preserveAspectRatio="xMidYMid meet">

<g transform="translate(0.000000,128.000000) scale(0.100000,-0.100000)"
fill="#000000" stroke="none">
<path d="M322 1264 c-30 -21 -28 -39 14 -132 l35 -79 -31 -49 c-35 -55 -60
-131 -60 -181 l0 -33 360 0 360 0 0 40 c0 52 -25 124 -62 180 l-30 44 36 73
c40 82 44 112 18 136 -43 39 -86 11 -124 -80 -19 -46 -25 -53 -43 -48 -11 4
-52 14 -91 23 -64 14 -76 14 -135 0 -35 -9 -72 -19 -81 -23 -13 -5 -24 8 -52
63 -42 84 -67 99 -114 66z m85 -94 c29 -59 30 -66 15 -78 -14 -11 -20 -5 -49
50 -37 72 -42 101 -15 96 10 -2 30 -31 49 -68z m533 55 c0 -9 -14 -45 -30 -82
-29 -63 -32 -66 -47 -50 -16 16 -15 21 15 82 30 60 62 86 62 50z m-168 -125
c25 -12 64 -37 86 -56 47 -40 102 -143 102 -191 l0 -33 -320 0 -320 0 0 24 c0
36 26 101 59 149 82 120 262 169 393 107z"/>
<path d="M446 969 c-46 -36 -23 -99 37 -99 27 0 57 32 57 61 0 16 -44 59 -60
59 -4 0 -19 -9 -34 -21z m52 -42 c2 -12 -3 -17 -17 -17 -12 0 -21 6 -21 13 0
31 32 34 38 4z"/>
<path d="M765 966 c-29 -29 -31 -43 -9 -74 29 -42 104 -18 104 34 0 26 -20 50
-47 59 -17 4 -29 -1 -48 -19z m53 -39 c2 -10 -3 -17 -12 -17 -18 0 -29 16 -21
31 9 14 29 6 33 -14z"/>
<path d="M85 715 c-25 -24 -25 -26 -25 -208 0 -170 2 -186 20 -210 44 -56 130
-39 150 31 7 23 10 99 8 200 l-3 164 -28 24 c-38 32 -90 32 -122 -1z m95 -25
c18 -18 20 -33 20 -188 0 -157 -1 -170 -20 -187 -16 -15 -26 -17 -48 -9 l-27
9 -3 180 c-3 174 -2 181 19 198 27 22 35 21 59 -3z"/>
<path d="M282 483 l3 -258 48 -3 47 -3 0 -80 c0 -76 2 -82 29 -110 40 -39 82
-39 122 0 27 28 29 34 29 110 l0 81 80 0 80 0 0 -70 c0 -76 16 -122 49 -140
35 -18 71 -11 102 19 27 28 29 34 29 110 l0 80 48 3 47 3 3 258 2 257 -65 0
c-50 0 -65 -3 -65 -14 0 -11 14 -16 48 -18 l47 -3 3 -222 2 -223 -49 0 c-59 0
-61 -3 -61 -114 0 -86 -8 -106 -44 -106 -44 0 -51 15 -56 117 l-5 98 -115 0
-115 0 -5 -95 c-3 -52 -9 -101 -13 -107 -11 -17 -62 -17 -75 0 -6 7 -13 56
-14 108 l-3 94 -47 3 -48 3 0 225 0 224 245 0 c211 0 245 2 245 15 0 13 -36
15 -265 15 l-265 0 2 -257z"/>
<path d="M1075 715 c-25 -24 -25 -26 -25 -214 l0 -189 31 -26 c39 -33 69 -33
108 0 l31 26 0 189 c0 188 0 190 -25 214 -16 17 -35 25 -60 25 -25 0 -44 -8
-60 -25z m103 -33 c8 -11 12 -63 12 -177 0 -175 -8 -205 -55 -205 -47 0 -55
30 -55 205 0 164 5 186 40 197 20 7 42 -1 58 -20z"/>
</g>
</svg>
