<?xml version="1.0" standalone="no"?>
<!DOCTYPE svg PUBLIC "-//W3C//DTD SVG 20010904//EN"
 "http://www.w3.org/TR/2001/REC-SVG-20010904/DTD/svg10.dtd">
<svg version="1.0" xmlns="http://www.w3.org/2000/svg"
 width="128.000000pt" height="128.000000pt" viewBox="0 0 128.000000 128.000000"
 preserveAspectRatio="xMidYMid meet">

<g transform="translate(0.000000,128.000000) scale(0.100000,-0.100000)"
fill="#000000" stroke="none">
<path d="M0 640 l0 -530 640 0 640 0 0 530 0 530 -640 0 -640 0 0 -530z m170
425 l0 -65 -65 0 -65 0 0 65 0 65 65 0 65 0 0 -65z m900 -425 l0 -490 -430 0
-430 0 0 490 0 490 430 0 430 0 0 -490z m170 425 l0 -65 -65 0 -65 0 0 65 0
65 65 0 65 0 0 -65z m-1070 -170 l0 -65 -65 0 -65 0 0 65 0 65 65 0 65 0 0
-65z m1070 0 l0 -65 -65 0 -65 0 0 65 0 65 65 0 65 0 0 -65z m-1070 -170 l0
-65 -65 0 -65 0 0 65 0 65 65 0 65 0 0 -65z m1070 0 l0 -65 -65 0 -65 0 0 65
0 65 65 0 65 0 0 -65z m-1070 -170 l0 -65 -65 0 -65 0 0 65 0 65 65 0 65 0 0
-65z m1070 0 l0 -65 -65 0 -65 0 0 65 0 65 65 0 65 0 0 -65z m-1070 -170 l0
-65 -65 0 -65 0 0 65 0 65 65 0 65 0 0 -65z m1070 0 l0 -65 -65 0 -65 0 0 65
0 65 65 0 65 0 0 -65z m-1070 -170 l0 -65 -65 0 -65 0 0 65 0 65 65 0 65 0 0
-65z m1070 0 l0 -65 -65 0 -65 0 0 65 0 65 65 0 65 0 0 -65z"/>
<path d="M477 823 c-4 -3 -7 -87 -7 -185 0 -145 3 -180 14 -184 20 -8 321 167
321 186 0 9 -63 52 -150 102 -149 87 -166 94 -178 81z m153 -115 c60 -35 110
-65 110 -68 0 -5 -216 -130 -225 -130 -3 0 -5 59 -5 130 0 72 2 130 5 130 3 0
55 -28 115 -62z"/>
</g>
</svg>
